<?xml version="1.0" encoding="UTF-8" standalone="no"?>
<svg xmlns="http://www.w3.org/2000/svg"
   xmlns:xlink="http://www.w3.org/1999/xlink"
   version="1.0"
   width="100" height="76">
  <defs>
    <linearGradient
       id="linearGradient3649">
      <stop
         id="stop3651"
         style="stop-color:#e59014;stop-opacity:1"
         offset="0" />
      <stop
         id="stop3653"
         style="stop-color:#f5c27d;stop-opacity:1"
         offset="1" />
    </linearGradient>
    <linearGradient
       id="linearGradient3620">
      <stop
         id="stop3622"
         style="stop-color:#0c0c0c;stop-opacity:1"
         offset="0" />
      <stop
         id="stop3624"
         style="stop-color:#7d7d7d;stop-opacity:1"
         offset="1" />
    </linearGradient>
    <linearGradient
       id="linearGradient3587">
      <stop
         id="stop3589"
         style="stop-color:#caf2a5;stop-opacity:1"
         offset="0" />
      <stop
         id="stop3593"
         style="stop-color:#96cf6a;stop-opacity:1"
         offset="0.5" />
      <stop
         id="stop3591"
         style="stop-color:#63ad30;stop-opacity:0"
         offset="1" />
    </linearGradient>
    <linearGradient
       id="linearGradient3569">
      <stop
         id="stop3571"
         style="stop-color:#3f9f1f;stop-opacity:1"
         offset="0" />
      <stop
         id="stop3577"
         style="stop-color:#63ad30;stop-opacity:1"
         offset="0.05634058" />
      <stop
         id="stop3573"
         style="stop-color:#83dd2e;stop-opacity:1"
         offset="1" />
    </linearGradient>
    <linearGradient
       id="linearGradient3557">
      <stop
         id="stop3559"
         style="stop-color:#e18806;stop-opacity:1"
         offset="0" />
      <stop
         id="stop3561"
         style="stop-color:#f8c685;stop-opacity:1"
         offset="1" />
    </linearGradient>
    <linearGradient
       id="linearGradient3549">
      <stop
         id="stop3551"
         style="stop-color:#c0a285;stop-opacity:1"
         offset="0" />
      <stop
         id="stop3553"
         style="stop-color:#854c13;stop-opacity:1"
         offset="1" />
    </linearGradient>
    <linearGradient
       x1="671.31213"
       y1="333.28854"
       x2="671.31213"
       y2="352.99814"
       id="linearGradient3555"
       xlink:href="#linearGradient3549"
       gradientUnits="userSpaceOnUse"
       gradientTransform="translate(-16.079295,0)" />
    <linearGradient
       x1="33.700439"
       y1="60.471371"
       x2="33.700439"
       y2="22.233778"
       id="linearGradient3563"
       xlink:href="#linearGradient3557"
       gradientUnits="userSpaceOnUse" />
    <linearGradient
       x1="32.85704"
       y1="72.015785"
       x2="32.85704"
       y2="58.812866"
       id="linearGradient3575"
       xlink:href="#linearGradient3569"
       gradientUnits="userSpaceOnUse" />
    <linearGradient
       x1="20.008518"
       y1="56.458477"
       x2="20.008518"
       y2="71.201218"
       id="linearGradient3585"
       xlink:href="#linearGradient3587"
       gradientUnits="userSpaceOnUse" />
    <linearGradient
       x1="682.0658"
       y1="328.98157"
       x2="682.0658"
       y2="356.66342"
       id="linearGradient3616"
       xlink:href="#linearGradient3549"
       gradientUnits="userSpaceOnUse" />
    <linearGradient
       x1="72.988953"
       y1="71.552361"
       x2="72.988953"
       y2="53.506046"
       id="linearGradient3655"
       xlink:href="#linearGradient3649"
       gradientUnits="userSpaceOnUse" />
    <linearGradient
       x1="69.972343"
       y1="55.166588"
       x2="69.972343"
       y2="16.958534"
       id="linearGradient3663"
       xlink:href="#linearGradient3557"
       gradientUnits="userSpaceOnUse" />
    <linearGradient
       x1="80.72084"
       y1="67.720512"
       x2="80.72084"
       y2="57.489754"
       id="linearGradient3673"
       xlink:href="#linearGradient3620"
       gradientUnits="userSpaceOnUse"
       gradientTransform="translate(624.1322,325.79074)" />
  </defs>
  <g
     transform="translate(-624.28571,-325.79074)"
     id="layer1">
    <path
       d="M 81.375839,57.208054 C 100.16779,60.395973 104.25036,52.677503 92.449665,50.832215 C 83.876326,49.491591 86.687642,42.278009 88.422819,37.073826 C 92.304873,25.430676 91.83393,26.683145 86.888761,14.615713 L 70.302013,27.342282 L 70.302013,57.208054 L 81.375839,57.208054 z"
       transform="translate(624.28571,325.79074)"
       id="path3602"
       style="opacity:1;fill:#854b12;fill-opacity:1;fill-rule:evenodd;stroke:none" />
    <path
       d="M 684.41111,382.99879 C 665.61916,386.18671 661.53659,378.46824 673.33728,376.62296 C 681.91062,375.28233 679.09931,368.06875 677.36413,362.86457 C 673.48208,351.22142 673.95302,352.47389 678.89819,340.40645 L 695.48494,353.13302 L 695.48494,382.99879 L 684.41111,382.99879 z"
       id="path3604"
       style="opacity:1;fill:#854b12;fill-opacity:1;fill-rule:evenodd;stroke:none" />
    <path
       d="M 65.03125,46.84375 L 68.0625,50.96875 L 65.75,51.9375 C 65.20056,53.670722 64.854549,54.80886 62.59375,55.34375 L 61.46875,72.676886 L 81.65625,72.676886 L 80.53125,55.34375 C 78.27045,54.80886 77.8932,53.670721 77.34375,51.9375 L 75.03125,50.96875 L 78.0625,46.84375 L 71.5625,49.53125 L 65.03125,46.84375 z"
       transform="translate(624.28571,325.79074)"
       id="path3644"
       style="fill:url(#linearGradient3655);fill-opacity:1;fill-rule:evenodd;stroke:none" />
    <path
       d="M 691.43227,398.38079 L 672.03467,398.38079 L 668.76447,395.11059 C 670.42473,391.4776 672.32395,388.32256 674.57995,385.88104 L 686.7366,381.21922 L 691.43227,398.38079 z"
       id="path3630"
       style="fill:#202020;fill-opacity:1;fill-rule:evenodd;stroke:#000000;stroke-width:1px;stroke-linecap:butt;stroke-linejoin:miter;stroke-opacity:1" />
    <path
       d="M 2.3489933,72.644294 A 31.879194,19.314245 0 0 1 66.107382,72.644295 L 34.228188,72.644295 z"
       transform="matrix(0.9789474,0,0,1.059829,623.32845,321.94786)"
       id="path3565"
       style="opacity:1;fill:url(#linearGradient3575);fill-opacity:1;fill-rule:evenodd;stroke:#068f02;stroke-width:0.78540272;stroke-linecap:square;stroke-linejoin:miter;stroke-miterlimit:4;stroke-dasharray:none;stroke-dashoffset:0;stroke-opacity:0.9254902" />
    <path
       d="M 2.3489933,72.644294 A 31.879194,19.314245 0 0 1 66.107382,72.644295 L 34.228188,72.644295 z"
       transform="matrix(0.8377654,0,0,1.0281284,628.16085,324.28016)"
       id="path3579"
       style="opacity:1;fill:url(#linearGradient3585);fill-opacity:1;fill-rule:evenodd;stroke:none" />
    <path
       d="M 53.634361,35.361233 A 19.933922,25.991188 0 1 1 13.766518,35.361233 A 19.933922,25.991188 0 1 1 53.634361,35.361233 z"
       transform="translate(623.62492,323.03743)"
       id="path2769"
       style="opacity:1;fill:url(#linearGradient3563);fill-opacity:1;fill-rule:evenodd;stroke:#854b12;stroke-width:1.25;stroke-linecap:square;stroke-linejoin:miter;stroke-miterlimit:4;stroke-dasharray:none;stroke-dashoffset:0;stroke-opacity:1" />
    <path
       d="M 33.03125,6.625 C 23.918035,6.625 16.21736,14.605301 13.84375,25.5 C 15.420929,27.335583 16.979517,28.26511 19.8125,28.4375 C 27.265788,28.891038 33.305177,17.687859 39,17.84375 C 42.793393,17.947591 45.11702,24.137933 48.90625,24.34375 C 49.693429,24.386506 50.733732,23.958125 51.6875,23.46875 C 48.846623,13.631519 41.565419,6.6250002 33.03125,6.625 z"
       transform="translate(624.28571,325.79074)"
       id="path3541"
       style="fill:#854b12;fill-opacity:1;fill-rule:evenodd;stroke:none" />
    <path
       d="M 654.1634,347.47034 C 646.84921,354.03304 642.54972,353.97617 640.46516,351.28483 C 638.3806,348.59349 641.74098,342.10114 646.28026,337.38871 C 650.24171,333.27194 657.83609,332.1963 659.75823,335.00593 C 662.50358,339.01886 659.02474,343.10846 654.1634,347.47034 z"
       id="path3546"
       style="fill:url(#linearGradient3555);fill-opacity:1;fill-rule:evenodd;stroke:none" />
    <path
       d="M 87.694597,30.166588 A 17.722254,26.373278 0 1 1 52.25009,30.166588 A 17.722254,26.373278 0 1 1 87.694597,30.166588 z"
       transform="translate(625.06461,323.10618)"
       id="path3595"
       style="opacity:1;fill:url(#linearGradient3663);fill-opacity:1;fill-rule:evenodd;stroke:#854b12;stroke-width:1.25;stroke-linecap:square;stroke-linejoin:miter;stroke-miterlimit:4;stroke-dasharray:none;stroke-dashoffset:0;stroke-opacity:1" />
    <path
       d="M 70.75,1.09375 C 60.967316,1.09375 53.031252,12.910702 53.03125,27.46875 C 53.03125,31.401757 53.617496,35.146262 54.65625,38.5 C 59.491455,40.103941 63.339806,33.944025 67.65625,28.90625 C 74.232765,21.23072 77.261923,13.382463 88.15625,32.53125 C 88.370698,30.892335 88.46875,29.200568 88.46875,27.46875 C 88.46875,12.910701 80.532684,1.0937499 70.75,1.09375 z"
       transform="translate(624.28571,325.79074)"
       id="path3597"
       style="fill:#854b12;fill-opacity:1;fill-rule:evenodd;stroke:none" />
    <path
       d="M 694.03554,345.17464 C 688.09835,355.11667 683.34331,358.08392 679.94339,356.07358 C 676.67725,354.14235 680.0428,342.30468 682.13143,337.80481 C 685.82725,329.84232 690.98954,326.9512 694.55091,328.30989 C 699.82176,330.32076 697.92095,338.6684 694.03554,345.17464 z"
       id="path3606"
       style="opacity:1;fill:url(#linearGradient3616);fill-opacity:1;fill-rule:evenodd;stroke:none" />
    <path
       d="M 700.04556,398.38079 L 719.44316,398.38079 L 722.71336,395.11059 C 721.0531,391.4776 719.15388,388.32256 716.89788,385.88104 L 704.74123,381.21922 L 700.04556,398.38079 z"
       id="path3618"
       style="fill:url(#linearGradient3673);fill-opacity:1;fill-rule:evenodd;stroke:#000000;stroke-width:1px;stroke-linecap:butt;stroke-linejoin:miter;stroke-opacity:1" />
    <path
       d="M 691.47685,398.38079 L 699.81617,398.38079"
       id="path3642"
       style="fill:none;fill-rule:evenodd;stroke:#000000;stroke-width:1px;stroke-linecap:butt;stroke-linejoin:miter;stroke-opacity:1" />
  </g>
</svg>
